<svg id="Layer_1" data-name="Layer 1" xmlns="http://www.w3.org/2000/svg" viewBox="0 0 408.2 393.41"><defs><style>.cls-1{font-size:25px;font-family:GujaratiSangamMN, Gujarati Sangam MN;}.cls-2{font-size:120px;font-family:LW, Linowrite;}</style></defs><text class="cls-1" transform="matrix(0.8, -1.33, 0.82, 0.5, 53.35, 115.28)">F</text><text class="cls-1" transform="matrix(1.03, -1.16, 0.72, 0.64, 67.2, 91.62)">O</text><text class="cls-1" transform="translate(88.86 66.89) rotate(-37.53) scale(1.55 0.96)">N</text><text class="cls-1" transform="matrix(1.39, -0.7, 0.43, 0.86, 114.19, 47.24)">D</text><text class="cls-1" transform="translate(142.34 32.83) rotate(-15.59) scale(1.55 0.96)">O</text><text class="cls-1" transform="translate(174.1 24.08) rotate(-5.26) scale(1.55 0.96)">S</text><text class="cls-1" transform="translate(201.95 21.96) rotate(1.1) scale(1.55 0.96)"> </text><text class="cls-1" transform="translate(211.73 21.5) rotate(7.8) scale(1.55 0.96)">B</text><text class="cls-1" transform="translate(240.67 25.34) rotate(17.7) scale(1.55 0.96)">Y</text><text class="cls-1" transform="matrix(1.41, 0.64, -0.4, 0.87, 268.11, 34.62)"> </text><text class="cls-1" transform="translate(277.25 37.88) rotate(31.62) scale(1.55 0.96)">N</text><text class="cls-1" transform="translate(304.64 55.43) rotate(39.29) scale(1.55 0.96)">I</text><text class="cls-1" transform="translate(314.77 62.75) rotate(46.93) scale(1.55 0.96)">N</text><text class="cls-1" transform="matrix(0.82, 1.31, -0.81, 0.51, 336.81, 86.04)">A</text><text class="cls-1" transform="translate(23.02 138.76) rotate(101.04) scale(1.55 0.96)">P</text><text class="cls-1" transform="matrix(-0.03, 1.55, -0.96, -0.02, 17.02, 169.53)">H</text><text class="cls-1" transform="translate(16.59 205.37) rotate(79.88) scale(1.55 0.96)">O</text><text class="cls-1" transform="translate(22.87 239.43) rotate(69.98) scale(1.55 0.96)">T</text><text class="cls-1" transform="translate(32.91 267.57) rotate(60.1) scale(1.55 0.96)">O</text><text class="cls-1" transform="translate(51.38 299.4) rotate(48.71) scale(1.55 0.96)">G</text><text class="cls-1" transform="translate(76.7 327.67) rotate(37.77) scale(1.55 0.96)">R</text><text class="cls-1" transform="translate(103.75 348.52) rotate(27.06) scale(1.55 0.96)">A</text><text class="cls-1" transform="matrix(1.48, 0.45, -0.28, 0.92, 136.05, 364.59)">P</text><text class="cls-1" transform="translate(166.09 373.62) rotate(6.43) scale(1.55 0.96)">H</text><text class="cls-1" transform="translate(201.57 377.29) rotate(-3.77) scale(1.55 0.96)">Y</text><text class="cls-1" transform="matrix(1.52, -0.28, 0.17, 0.94, 232.78, 374.6)"> </text><text class="cls-1" transform="translate(244.76 372.93) rotate(-17.18) scale(1.55 0.96)">B</text><text class="cls-1" transform="matrix(1.37, -0.72, 0.45, 0.85, 276.11, 363.21)">A</text><text class="cls-1" transform="matrix(1.21, -0.97, 0.6, 0.75, 308.05, 346.16)">C</text><text class="cls-1" transform="translate(335.75 323.64) rotate(-49.34) scale(1.55 0.96)">K</text><text class="cls-1" transform="matrix(0.78, -1.34, 0.83, 0.48, 358.01, 297.53)">D</text><text class="cls-1" transform="translate(375.54 266.77) rotate(-70.6) scale(1.55 0.96)">R</text><text class="cls-1" transform="translate(386.83 234.49) rotate(-81.47) scale(1.55 0.96)">O</text><text class="cls-1" transform="translate(391.84 198.31) rotate(-91.73) scale(1.55 0.96)">P</text><text class="cls-1" transform="translate(390.75 167.11) rotate(-101.16) scale(1.55 0.96)">S</text><circle cx="38.79" cy="121.43" r="6.01"/><circle cx="371.1" cy="121.43" r="6.01"/><text class="cls-2" transform="translate(146.53 161.76) scale(1.55 1.21)">F</text><text class="cls-2" transform="translate(133.05 301.76) scale(1.55 1.21)">N</text><text class="cls-1" transform="translate(212.6 193.99) scale(1.55 0.96)">BY</text></svg>